3.0Hz3min_grf.mot
version=1
nRows=10
nColumns 19
inDegrees=yes
endheader
time	1_ground_force_vx	1_ground_force_vy	1_ground_force_vz	1_ground_force_px	1_ground_force_py	1_ground_force_pz	1_ground_torque_x	1_ground_torque_y	1_ground_torque_z	2_ground_force_vx	2_ground_force_vy	2_ground_force_vz	2_ground_force_px	2_ground_force_py	2_ground_force_pz	2_ground_torque_x	2_ground_torque_y	2_ground_torque_z
            3.744000	            0.092743	           -0.182017	            0.411703	           -0.233013	            0.005581	           -0.255695	           -0.036332	           -0.027519	           -0.033708	           -0.280414	           -0.185331	            0.046391	           -0.232311	            0.006130	           -0.833667	           -0.187407	           -0.151115	           -0.226662
            3.744500	            0.000407	           -0.361121	            0.136022	           -0.233013	            0.005581	           -0.255695	           -0.043465	            0.037454	           -0.112507	           -0.231529	           -0.737941	            0.138256	           -0.232311	            0.006130	           -0.833667	           -0.055850	           -0.160294	           -0.170201
            3.745000	            0.046071	           -0.000384	            0.091598	           -0.233013	            0.005581	           -0.255695	           -0.079472	            0.065519	           -0.185548	           -0.043383	           -0.922082	            0.325231	           -0.232311	            0.006130	           -0.833667	           -0.130762	           -0.217483	           -0.113821
            3.745500	            0.000147	           -0.180462	            0.045083	           -0.233013	            0.005581	           -0.255695	           -0.020936	           -0.008682	           -0.131566	           -0.182665	           -1.290384	            0.183193	           -0.232311	            0.006130	           -0.833667	           -0.093329	           -0.170353	           -0.038268
            3.746000	           -0.137218	           -1.081817	            0.041559	           -0.233013	            0.005581	           -0.255695	            0.036150	           -0.110734	           -0.062785	            0.008099	           -2.210784	            0.273684	           -0.232311	            0.006130	           -0.833667	           -0.112368	           -0.122485	           -0.226593
            3.746500	            0.275498	           -0.541334	            0.134566	           -0.233013	            0.005581	           -0.255695	           -0.080784	           -0.147376	           -0.082674	            0.051023	           -1.106227	            0.418391	           -0.232311	            0.006130	           -0.833667	           -0.018493	           -0.103375	           -0.188865
            3.747000	            0.046804	           -0.902696	            0.317013	           -0.233013	            0.005581	           -0.255695	           -0.013357	           -0.138138	           -0.111361	           -0.137185	           -0.921584	            0.090631	           -0.232311	            0.006130	           -0.833667	           -0.168837	           -0.075896	           -0.094449
            3.747500	           -0.320850	           -0.901194	           -0.048924	           -0.233013	            0.005581	           -0.255695	           -0.035320	           -0.018159	           -0.126430	           -0.040101	           -1.842489	            0.228090	           -0.232311	            0.006130	           -0.833667	           -0.112208	           -0.151314	           -0.094743
            3.748000	            0.138035	           -0.901892	            0.133362	           -0.233013	            0.005581	           -0.255695	           -0.043108	            0.065247	           -0.106506	           -0.040704	           -1.658843	            0.369531	           -0.232311	            0.006130	           -0.833667	           -0.131077	           -0.141526	           -0.207802
            3.748500	            0.138718	           -0.903071	            0.408497	           -0.233013	            0.005581	           -0.255695	           -0.036204	            0.047013	           -0.162995	            0.006687	           -1.841818	            0.087286	           -0.232311	            0.006130	           -0.833667	           -0.112029	           -0.198645	           -0.076061
